<?xml version="1.0" encoding="utf-8"?>
<!-- Generator: Adobe Illustrator 24.3.0, SVG Export Plug-In . SVG Version: 6.00 Build 0)  -->
<svg version="1.1" id="Layer_1" xmlns="http://www.w3.org/2000/svg" xmlns:xlink="http://www.w3.org/1999/xlink" x="0px" y="0px"
	 viewBox="0 0 431.2 58.6" style="enable-background:new 0 0 431.2 58.6;" xml:space="preserve">
<style type="text/css">
	.st0{fill:#656C73;}
	.st1{fill:#EA4335;}
	.st2{fill:#4285F4;}
	.st3{fill:#FBBC04;}
	.st4{fill:#34A853;}
	.st5{enable-background:new    ;}
	.st6{fill:#F28E86;stroke:#000000;stroke-miterlimit:10;}
	.st7{fill:#8EB6F8;stroke:#000000;stroke-miterlimit:10;}
	.st8{fill:#FDD768;stroke:#000000;stroke-miterlimit:10;}
	.st9{fill:#5DB975;stroke:#000000;stroke-miterlimit:10;}
</style>
<g>
	<g>
		<path class="st0" d="M142.6,49.4c-3.5-2-6.3-4.8-8.3-8.3s-3-7.4-3-11.7s1-8.1,3-11.7c2-3.5,4.8-6.3,8.3-8.3s7.3-3,11.4-3
			c3.2,0,6.3,0.6,9.1,1.7s5.2,2.8,7,4.8l-3.7,3.7c-1.4-1.7-3.2-3-5.4-4c-2.2-0.9-4.5-1.4-7-1.4c-3.1,0-5.9,0.7-8.6,2.2
			s-4.8,3.6-6.4,6.3c-1.6,2.7-2.4,5.9-2.4,9.4c0,3.6,0.8,6.7,2.4,9.4c1.6,2.7,3.8,4.8,6.4,6.3c2.7,1.5,5.6,2.2,8.6,2.2
			c2.9,0,5.4-0.5,7.4-1.4s3.7-2.1,5.2-3.7c1.1-1.1,1.9-2.5,2.6-4.2c0.7-1.6,1-3.4,1.2-5.3h-16.2v-4.8h21.1c0.2,1.1,0.3,2.2,0.3,3.2
			c0,2.7-0.4,5.3-1.3,7.9c-0.9,2.6-2.2,4.8-4.1,6.7c-4.1,4.4-9.5,6.6-16.1,6.6C149.9,52.4,146.1,51.4,142.6,49.4z"/>
		<path class="st0" d="M181,7.5h13.3c4.5,0,8.4,0.9,11.8,2.8c3.4,1.9,5.9,4.4,7.7,7.8c1.8,3.3,2.7,7.1,2.7,11.4s-0.9,8.1-2.7,11.4
			s-4.4,5.9-7.7,7.8c-3.4,1.9-7.3,2.8-11.8,2.8H181V7.5z M194.3,46.5c5.2,0,9.3-1.5,12.3-4.5s4.5-7.2,4.5-12.5
			c0-5.4-1.5-9.5-4.5-12.5s-7.1-4.5-12.3-4.5h-8.1v34H194.3z"/>
		<path class="st0" d="M230.3,51c-2.1-0.9-3.9-2.3-5.5-4c-1.6-1.8-2.7-3.9-3.4-6.5l5-2c0.7,2.6,2,4.8,3.9,6.4
			c1.9,1.7,4.1,2.5,6.6,2.5c2.6,0,4.7-0.7,6.5-2.1c1.8-1.4,2.6-3.2,2.6-5.6c0-2-0.7-3.7-2.2-5.1c-1.5-1.3-3.9-2.6-7.3-3.7l-2.8-1
			c-3.1-1.1-5.6-2.6-7.6-4.4s-2.9-4.3-2.9-7.5c0-2.1,0.6-4,1.7-5.8s2.7-3.2,4.8-4.3c2-1.1,4.3-1.6,6.8-1.6c2.5,0,4.8,0.5,6.7,1.4
			s3.4,2.1,4.5,3.4c1.1,1.4,1.9,2.7,2.3,4l-4.8,2.1c-0.5-1.6-1.4-2.9-2.8-4.1s-3.3-1.8-5.7-1.8c-2.2,0-4.2,0.6-5.8,1.9
			s-2.4,2.9-2.4,4.8c0,1.7,0.7,3.1,2,4.2c1.3,1.1,3.4,2.1,6.1,3l2.8,1c3.7,1.3,6.6,3,8.7,5.1c2.1,2,3.2,4.8,3.2,8.3
			c0,2.8-0.7,5.2-2.2,7.1s-3.3,3.3-5.5,4.2s-4.5,1.4-6.9,1.4C234.5,52.4,232.4,52,230.3,51z"/>
		<path class="st0" d="M266.1,49.4c-3.5-2-6.2-4.8-8.2-8.3s-3-7.4-3-11.7s1-8.1,3-11.7c2-3.5,4.7-6.3,8.2-8.3s7.3-3,11.5-3
			c3.3,0,6.3,0.6,9.1,1.9c2.7,1.2,5.1,3,7,5.3l-3.7,3.6c-1.6-2-3.5-3.5-5.5-4.4s-4.3-1.4-6.9-1.4c-3.1,0-6.1,0.7-8.7,2.2
			c-2.7,1.5-4.8,3.6-6.4,6.3s-2.4,5.9-2.4,9.4c0,3.6,0.8,6.7,2.4,9.4s3.7,4.8,6.4,6.3s5.6,2.2,8.7,2.2c5.4,0,9.9-2.2,13.6-6.6
			l3.7,3.7c-2,2.4-4.5,4.3-7.5,5.7s-6.3,2.1-9.9,2.1C273.5,52.4,269.6,51.4,266.1,49.4z"/>
	</g>
	<g>
		<path class="st1" d="M28.8,29.4L48.5,18c4.6-2.7,6.2-8.6,3.5-13.2s-8.6-6.2-13.2-3.5l-34,19.6L28.8,29.4z"/>
		<path class="st2" d="M43.6,58.6c3.3,0,6.6-1.7,8.4-4.8c2.7-4.6,1.1-10.5-3.5-13.2L14.5,21C9.9,18.3,4,19.9,1.3,24.5
			S0.2,35,4.8,37.7l34,19.6C40.3,58.2,42,58.6,43.6,58.6z"/>
		<path class="st3" d="M77.4,58.6c1.6,0,3.3-0.4,4.8-1.3l34-19.6L92.5,29l-20,11.5c-4.6,2.7-6.2,8.6-3.5,13.2
			C70.8,56.9,74.1,58.6,77.4,58.6z"/>
		<path class="st4" d="M111.4,39c3.3,0,6.6-1.7,8.4-4.8c2.7-4.6,1.1-10.5-3.5-13.2l-34-19.6c-4.6-2.7-10.5-1.1-13.2,3.5
			c-2.7,4.6-1.1,10.5,3.5,13.2l34,19.6C108.1,38.6,109.8,39,111.4,39z"/>
	</g>
	<g class="st5">
		<path class="st6" d="M306.3,7.8h8.1V25h18.1V7.8h8.1v43h-8.1V32.7h-18.1v18.1h-8.1V7.8z"/>
		<path class="st7" d="M350.4,7.8h5.7v43h-5.7V7.8z"/>
		<path class="st8" d="M377,15.5h-12V7.8h32.1v7.7h-12v35.3H377V15.5z"/>
		<path class="st9" d="M406,48.6c-2.9-2.1-4.9-5.1-6.1-9l7.6-3c0.6,2.3,1.6,4.1,3.1,5.5c1.4,1.4,3.2,2,5.4,2c1.8,0,3.3-0.5,4.6-1.4
			c1.3-0.9,1.9-2.1,1.9-3.8c0-1.6-0.6-2.9-1.8-3.9c-1.2-1-3.4-2.1-6.5-3.3l-2.6-1c-2.8-1-5.1-2.4-7.1-4.4c-2-2-2.9-4.5-2.9-7.5
			c0-2.2,0.6-4.3,1.7-6.1c1.2-1.8,2.8-3.3,4.9-4.3c2.1-1.1,4.5-1.6,7.2-1.6c3.9,0,6.9,0.9,9.2,2.7c2.2,1.8,3.8,4,4.6,6.4l-7.1,3
			c-0.4-1.3-1.2-2.4-2.3-3.3c-1.1-0.9-2.5-1.4-4.2-1.4c-1.8,0-3.2,0.4-4.4,1.2c-1.1,0.8-1.7,1.9-1.7,3.2c0,1.3,0.5,2.4,1.6,3.3
			c1.1,0.9,2.9,1.8,5.3,2.6l2.7,0.9c3.7,1.3,6.6,3,8.5,5.1c2,2.1,3,4.9,3,8.2c0,2.8-0.7,5.2-2.2,7.1c-1.4,1.9-3.3,3.4-5.5,4.3
			c-2.3,1-4.6,1.4-7,1.4C412.2,51.7,408.9,50.7,406,48.6z"/>
	</g>
</g>
</svg>
