<?xml version="1.0" encoding="utf-8"?>
<!-- Generator: Adobe Illustrator 24.3.0, SVG Export Plug-In . SVG Version: 6.00 Build 0)  -->
<svg version="1.1" id="Layer_1" xmlns="http://www.w3.org/2000/svg" xmlns:xlink="http://www.w3.org/1999/xlink" x="0px" y="0px"
	 viewBox="0 0 1018.92 95.64" style="enable-background:new 0 0 1018.92 95.64;" xml:space="preserve">
<style type="text/css">
	.st0{fill:#656C73;}
	.st1{fill:#EA4335;}
	.st2{fill:#4285F4;}
	.st3{fill:#FBBC04;}
	.st4{fill:#34A853;}
	.st5{fill:#6B6B6B;}
</style>
<g>
	<g>
		<path class="st0" d="M159.62,48.71c-3.5-2-6.3-4.8-8.3-8.3s-3-7.4-3-11.7s1-8.1,3-11.7c2-3.5,4.8-6.3,8.3-8.3c3.5-2,7.3-3,11.4-3
			c3.2,0,6.3,0.6,9.1,1.7s5.2,2.8,7,4.8l-3.7,3.7c-1.4-1.7-3.2-3-5.4-4c-2.2-0.9-4.5-1.4-7-1.4c-3.1,0-5.9,0.7-8.6,2.2
			s-4.8,3.6-6.4,6.3c-1.6,2.7-2.4,5.9-2.4,9.4c0,3.6,0.8,6.7,2.4,9.4c1.6,2.7,3.8,4.8,6.4,6.3c2.7,1.5,5.6,2.2,8.6,2.2
			c2.9,0,5.4-0.5,7.4-1.4c2-0.9,3.7-2.1,5.2-3.7c1.1-1.1,1.9-2.5,2.6-4.2c0.7-1.6,1-3.4,1.2-5.3h-16.2v-4.8h21.1
			c0.2,1.1,0.3,2.2,0.3,3.2c0,2.7-0.4,5.3-1.3,7.9c-0.9,2.6-2.2,4.8-4.1,6.7c-4.1,4.4-9.5,6.6-16.1,6.6
			C166.92,51.71,163.12,50.71,159.62,48.71z"/>
		<path class="st0" d="M204.02,49.61c-2.4-1.4-4.2-3.4-5.6-5.8c-1.3-2.5-2-5.2-2-8.3c0-3,0.7-5.8,2-8.3s3.2-4.4,5.6-5.8
			c2.4-1.4,5.1-2.1,8-2.1c3,0,5.7,0.7,8.1,2.1c2.4,1.4,4.3,3.4,5.6,5.8c1.3,2.5,2,5.2,2,8.3c0,3-0.7,5.8-2,8.3s-3.2,4.4-5.6,5.8
			c-2.4,1.4-5.1,2.1-8.1,2.1C209.12,51.71,206.42,51.01,204.02,49.61z M217.22,45.61c1.6-0.9,2.9-2.3,3.8-4c1-1.7,1.4-3.8,1.4-6
			c0-2.3-0.5-4.3-1.4-6c-1-1.7-2.2-3.1-3.8-4c-1.6-0.9-3.3-1.4-5.2-1.4c-1.8,0-3.5,0.5-5.1,1.4s-2.9,2.3-3.8,4c-1,1.7-1.4,3.8-1.4,6
			c0,2.3,0.5,4.3,1.4,6c1,1.7,2.2,3.1,3.8,4c1.6,0.9,3.3,1.4,5.1,1.4C213.92,47.01,215.62,46.51,217.22,45.61z"/>
		<path class="st0" d="M238.82,49.61c-2.4-1.4-4.2-3.4-5.6-5.8c-1.3-2.5-2-5.2-2-8.3c0-3,0.7-5.8,2-8.3s3.2-4.4,5.6-5.8
			c2.4-1.4,5.1-2.1,8-2.1c3,0,5.7,0.7,8.1,2.1s4.3,3.4,5.6,5.8c1.3,2.5,2,5.2,2,8.3c0,3-0.7,5.8-2,8.3c-1.3,2.5-3.2,4.4-5.6,5.8
			c-2.4,1.4-5.1,2.1-8.1,2.1C243.92,51.71,241.22,51.01,238.82,49.61z M252.02,45.61c1.6-0.9,2.9-2.3,3.8-4c1-1.7,1.4-3.8,1.4-6
			c0-2.3-0.5-4.3-1.4-6c-1-1.7-2.2-3.1-3.8-4c-1.6-0.9-3.3-1.4-5.2-1.4c-1.8,0-3.5,0.5-5.1,1.4c-1.6,0.9-2.9,2.3-3.8,4
			c-1,1.7-1.4,3.8-1.4,6c0,2.3,0.5,4.3,1.4,6c1,1.7,2.2,3.1,3.8,4c1.6,0.9,3.3,1.4,5.1,1.4C248.72,47.01,250.42,46.51,252.02,45.61z
			"/>
		<path class="st0" d="M272.22,62.31c-2.3-1.8-3.9-3.8-4.7-6.1l4.8-2c0.6,1.8,1.7,3.3,3.3,4.4c1.6,1.1,3.4,1.7,5.6,1.7
			c3.2,0,5.7-0.9,7.5-2.8c1.7-1.9,2.6-4.5,2.6-7.9v-3.3h-0.2c-1,1.6-2.4,2.8-4.2,3.9c-1.8,1-3.9,1.5-6.3,1.5c-2.6,0-5-0.7-7.2-2.1
			c-2.2-1.4-4-3.3-5.3-5.8c-1.3-2.5-2-5.2-2-8.3s0.7-5.8,2-8.3c1.3-2.5,3.1-4.4,5.3-5.8s4.6-2.1,7.2-2.1c2.3,0,4.4,0.5,6.3,1.5
			c1.8,1,3.3,2.3,4.2,3.9h0.2v-4.4h5v29.2c0,3.4-0.7,6.2-2,8.5c-1.3,2.3-3.1,4.1-5.4,5.2s-4.8,1.7-7.7,1.7
			C277.52,65.01,274.52,64.11,272.22,62.31z M286.32,45.61c1.5-0.9,2.7-2.2,3.7-4c0.9-1.7,1.4-3.8,1.4-6.1s-0.5-4.4-1.4-6.1
			c-0.9-1.7-2.1-3.1-3.7-4c-1.5-0.9-3.2-1.4-5-1.4c-1.8,0-3.5,0.5-5,1.4s-2.7,2.3-3.7,4c-0.9,1.7-1.4,3.8-1.4,6.1s0.5,4.4,1.4,6.1
			c0.9,1.7,2.1,3.1,3.7,4c1.5,0.9,3.2,1.4,5,1.4C283.12,47.01,284.82,46.51,286.32,45.61z"/>
		<path class="st0" d="M308.52,6.81h-5.2v43.9h5.2V6.81z"/>
		<path class="st0" d="M320.82,49.61c-2.3-1.4-4.1-3.3-5.4-5.8s-2-5.2-2-8.3c0-2.9,0.6-5.7,1.8-8.1c1.2-2.5,3-4.4,5.2-5.9
			c2.3-1.5,4.9-2.2,7.8-2.2c2.9,0,5.5,0.7,7.8,2c2.2,1.3,3.9,3.2,5.1,5.6c1.2,2.4,1.8,5.2,1.8,8.3c0,0.6,0,1-0.1,1.2h-24.2
			c0.1,2.3,0.6,4.2,1.7,5.8c1,1.6,2.3,2.8,3.8,3.5c1.5,0.8,3.1,1.2,4.8,1.2c3.8,0,6.8-1.9,8.9-5.6l4.6,2.2c-1.3,2.5-3.1,4.4-5.4,5.9
			c-2.3,1.5-5.1,2.2-8.3,2.2C325.82,51.71,323.22,51.01,320.82,49.61z M337.52,32.11c-0.1-1.2-0.4-2.5-1-3.7c-0.6-1.2-1.6-2.3-3-3.1
			c-1.4-0.9-3.1-1.3-5.2-1.3c-2.3,0-4.3,0.7-6,2.2c-1.7,1.5-2.7,3.4-3.2,5.9H337.52z"/>
		<path class="st0" d="M363.02,6.81h13.3c4.5,0,8.4,0.9,11.8,2.8c3.4,1.9,5.9,4.4,7.7,7.8c1.8,3.3,2.7,7.1,2.7,11.4
			s-0.9,8.1-2.7,11.4c-1.8,3.3-4.4,5.9-7.7,7.8c-3.4,1.9-7.3,2.8-11.8,2.8h-13.3V6.81z M376.32,45.81c5.2,0,9.3-1.5,12.3-4.5
			s4.5-7.2,4.5-12.5c0-5.4-1.5-9.5-4.5-12.5s-7.1-4.5-12.3-4.5h-8.1v34H376.32z"/>
		<path class="st0" d="M410.32,49.61c-2.3-1.4-4.1-3.3-5.4-5.8s-2-5.2-2-8.3c0-2.9,0.6-5.7,1.8-8.1c1.2-2.5,3-4.4,5.2-5.9
			c2.3-1.5,4.9-2.2,7.8-2.2c2.9,0,5.5,0.7,7.8,2c2.2,1.3,3.9,3.2,5.1,5.6c1.2,2.4,1.8,5.2,1.8,8.3c0,0.6,0,1-0.1,1.2h-24.2
			c0.1,2.3,0.6,4.2,1.7,5.8c1,1.6,2.3,2.8,3.8,3.5c1.5,0.8,3.1,1.2,4.8,1.2c3.8,0,6.8-1.9,8.9-5.6l4.6,2.2c-1.3,2.5-3.1,4.4-5.4,5.9
			c-2.3,1.5-5.1,2.2-8.3,2.2C415.22,51.71,412.62,51.01,410.32,49.61z M427.02,32.11c-0.1-1.2-0.4-2.5-1-3.7c-0.6-1.2-1.6-2.3-3-3.1
			c-1.4-0.9-3.1-1.3-5.2-1.3c-2.3,0-4.3,0.7-6,2.2c-1.7,1.5-2.7,3.4-3.2,5.9H427.02z"/>
		<path class="st0" d="M433.72,20.31h5.7l9.3,24.3h0.1l9.5-24.3h5.5l-12.5,30.4h-5.3L433.72,20.31z"/>
		<path class="st0" d="M473.32,49.61c-2.3-1.4-4.1-3.3-5.4-5.8s-2-5.2-2-8.3c0-2.9,0.6-5.7,1.8-8.1c1.2-2.5,3-4.4,5.2-5.9
			c2.3-1.5,4.9-2.2,7.8-2.2c2.9,0,5.5,0.7,7.8,2c2.2,1.3,3.9,3.2,5.1,5.6c1.2,2.4,1.8,5.2,1.8,8.3c0,0.6,0,1-0.1,1.2h-24.2
			c0.1,2.3,0.6,4.2,1.7,5.8c1,1.6,2.3,2.8,3.8,3.5c1.5,0.8,3.1,1.2,4.8,1.2c3.8,0,6.8-1.9,8.9-5.6l4.6,2.2c-1.3,2.5-3.1,4.4-5.4,5.9
			c-2.3,1.5-5.1,2.2-8.3,2.2C478.32,51.71,475.62,51.01,473.32,49.61z M490.02,32.11c-0.1-1.2-0.4-2.5-1-3.7c-0.6-1.2-1.6-2.3-3-3.1
			c-1.4-0.9-3.1-1.3-5.2-1.3c-2.3,0-4.3,0.7-6,2.2c-1.7,1.5-2.7,3.4-3.2,5.9H490.02z"/>
		<path class="st0" d="M506.02,6.81h-5.2v43.9h5.2V6.81z"/>
		<g>
			<path class="st0" d="M518.52,49.61c-2.4-1.4-4.2-3.4-5.6-5.8c-1.3-2.5-2-5.2-2-8.3c0-3,0.7-5.8,2-8.3s3.2-4.4,5.6-5.8
				c2.4-1.4,5-2.1,8-2.1s5.7,0.7,8.1,2.1c2.4,1.4,4.3,3.4,5.6,5.8c1.3,2.5,2,5.2,2,8.3c0,3-0.7,5.8-2,8.3s-3.2,4.4-5.6,5.8
				c-2.4,1.4-5.1,2.1-8.1,2.1S520.92,51.01,518.52,49.61z M531.72,45.61c1.6-0.9,2.9-2.3,3.8-4c1-1.7,1.4-3.8,1.4-6
				c0-2.3-0.5-4.3-1.4-6c-1-1.7-2.2-3.1-3.8-4c-1.6-0.9-3.3-1.4-5.2-1.4c-1.8,0-3.5,0.5-5.1,1.4s-2.9,2.3-3.8,4
				c-1,1.7-1.4,3.8-1.4,6c0,2.3,0.5,4.3,1.4,6c1,1.7,2.2,3.1,3.8,4c1.6,0.9,3.3,1.4,5.1,1.4C528.42,47.01,530.12,46.51,531.72,45.61
				z"/>
		</g>
		<path class="st0" d="M546.92,20.31h5v4.5h0.2c1-1.6,2.4-2.9,4.2-3.9c1.8-1,4-1.6,6.4-1.6c2.6,0,5,0.7,7.2,2.1s4,3.3,5.3,5.8
			s2,5.2,2,8.3s-0.7,5.8-2,8.3s-3.1,4.4-5.3,5.8c-2.2,1.4-4.6,2.1-7.2,2.1c-2.4,0-4.6-0.5-6.4-1.6c-1.9-1-3.3-2.4-4.2-4h-0.2
			l0.2,4.2v13.6h-5.2V20.31z M567.02,45.61c1.5-0.9,2.8-2.3,3.7-4c0.9-1.7,1.4-3.8,1.4-6c0-2.3-0.5-4.3-1.4-6
			c-0.9-1.7-2.1-3.1-3.7-4c-1.5-0.9-3.2-1.4-5-1.4c-1.8,0-3.5,0.5-5,1.4s-2.8,2.2-3.7,4c-0.9,1.7-1.4,3.8-1.4,6.1s0.5,4.3,1.4,6.1
			c0.9,1.8,2.1,3.1,3.7,4c1.5,0.9,3.2,1.4,5,1.4C563.82,47.21,565.42,46.51,567.02,45.61z"/>
		<path class="st0" d="M589.42,49.61c-2.3-1.4-4.1-3.3-5.4-5.8c-1.3-2.5-2-5.2-2-8.3c0-2.9,0.6-5.7,1.8-8.1c1.2-2.5,3-4.4,5.2-5.9
			c2.3-1.5,4.9-2.2,7.8-2.2c2.9,0,5.5,0.7,7.8,2c2.2,1.3,3.9,3.2,5.1,5.6s1.8,5.2,1.8,8.3c0,0.6,0,1-0.1,1.2h-24.2
			c0.1,2.3,0.6,4.2,1.7,5.8c1,1.6,2.3,2.8,3.8,3.5c1.5,0.8,3.1,1.2,4.8,1.2c3.8,0,6.8-1.9,8.9-5.6l4.6,2.2c-1.3,2.5-3.1,4.4-5.4,5.9
			s-5.1,2.2-8.3,2.2C594.42,51.71,591.72,51.01,589.42,49.61z M606.12,32.11c-0.1-1.2-0.4-2.5-1-3.7c-0.6-1.2-1.6-2.3-3-3.1
			c-1.4-0.9-3.1-1.3-5.2-1.3c-2.3,0-4.3,0.7-5.9,2.2c-1.7,1.5-2.7,3.4-3.2,5.9H606.12z"/>
		<path class="st0" d="M616.92,20.31h5v5h0.2c0.6-1.7,1.7-3.1,3.5-4.2s3.6-1.7,5.3-1.7c1.3,0,2.5,0.2,3.6,0.6v5.6
			c-1.1-0.6-2.5-0.9-4.3-0.9c-1.4,0-2.8,0.4-4,1.3c-1.2,0.8-2.2,2-3,3.4c-0.7,1.4-1.1,2.9-1.1,4.6v17h-5.2V20.31z"/>
		<path class="st0" d="M657.32,50.31c-2.1-0.9-3.9-2.3-5.5-4c-1.6-1.8-2.7-3.9-3.4-6.5l5-2c0.7,2.6,2,4.8,3.9,6.4
			c1.9,1.7,4.1,2.5,6.6,2.5c2.6,0,4.7-0.7,6.5-2.1c1.8-1.4,2.6-3.2,2.6-5.6c0-2-0.7-3.7-2.2-5.1c-1.5-1.3-3.9-2.6-7.3-3.7l-2.8-1
			c-3.1-1.1-5.6-2.6-7.6-4.4c-2-1.8-2.9-4.3-2.9-7.5c0-2.1,0.6-4,1.7-5.8s2.7-3.2,4.8-4.3c2-1.1,4.3-1.6,6.8-1.6s4.8,0.5,6.7,1.4
			c1.9,0.9,3.4,2.1,4.5,3.4c1.1,1.4,1.9,2.7,2.3,4l-4.8,2.1c-0.5-1.6-1.4-2.9-2.8-4.1s-3.3-1.8-5.7-1.8c-2.2,0-4.2,0.6-5.8,1.9
			s-2.4,2.9-2.4,4.8c0,1.7,0.7,3.1,2,4.2c1.3,1.1,3.4,2.1,6.1,3l2.8,1c3.7,1.3,6.6,3,8.7,5.1c2.1,2,3.2,4.8,3.2,8.3
			c0,2.8-0.7,5.2-2.2,7.1s-3.3,3.3-5.5,4.2c-2.2,0.9-4.5,1.4-6.9,1.4C661.52,51.71,659.42,51.31,657.32,50.31z"/>
		<path class="st0" d="M691.02,51.11c-1-0.4-1.9-1-2.7-1.7c-0.8-0.8-1.4-1.7-1.8-2.8c-0.4-1.1-0.6-2.3-0.6-3.8v-17.8h-5.4v-4.7h5.4
			v-9.1h5.2v9.1h7.5v4.7h-7.5v16.6c0,1.8,0.3,3.1,1,3.9c0.7,0.9,1.8,1.4,3.2,1.4c1.3,0,2.4-0.3,3.3-0.9v5c-0.7,0.2-1.3,0.4-1.9,0.5
			c-0.6,0.1-1.4,0.2-2.4,0.2C693.12,51.71,692.02,51.51,691.02,51.11z"/>
		<path class="st0" d="M706.72,48.51c-1.9-2.2-2.9-5.2-2.9-9v-19.1h5.2v18.3c0,5.6,2.5,8.4,7.5,8.4c1.7,0,3.2-0.5,4.5-1.4
			c1.3-0.9,2.4-2.2,3.1-3.7s1.1-3.1,1.1-4.8v-16.8h5.2v30.4h-4.9v-4.5h-0.2c-0.9,1.6-2.3,2.9-4.1,3.9c-1.8,1.1-3.8,1.6-5.9,1.6
			C711.52,51.71,708.62,50.61,706.72,48.51z"/>
		<path class="st0" d="M742.62,49.61c-2.2-1.4-4-3.3-5.3-5.8c-1.3-2.5-2-5.2-2-8.3s0.7-5.8,2-8.3c1.3-2.5,3.1-4.4,5.3-5.8
			s4.6-2.1,7.2-2.1c2.4,0,4.5,0.5,6.4,1.6c1.9,1,3.3,2.3,4.2,3.9h0.2l-0.2-4.2V6.81h5.2v43.9h-4.9v-4.5h-0.2c-0.9,1.6-2.4,2.9-4.2,4
			c-1.9,1-4,1.6-6.4,1.6C747.22,51.71,744.82,51.01,742.62,49.61z M755.62,45.61c1.5-0.9,2.8-2.3,3.7-4c0.9-1.8,1.4-3.8,1.4-6.1
			s-0.5-4.4-1.4-6.1c-0.9-1.7-2.1-3.1-3.7-4c-1.5-0.9-3.2-1.4-5-1.4s-3.5,0.5-5,1.4s-2.8,2.3-3.7,4c-0.9,1.7-1.4,3.8-1.4,6
			c0,2.3,0.5,4.3,1.4,6c0.9,1.7,2.1,3.1,3.7,4c1.5,0.9,3.2,1.4,5,1.4C752.42,47.01,754.12,46.51,755.62,45.61z"/>
		<path class="st0" d="M778.02,49.61c-2.3-1.4-4.1-3.3-5.4-5.8s-2-5.2-2-8.3c0-2.9,0.6-5.7,1.8-8.1c1.2-2.5,3-4.4,5.2-5.9
			c2.3-1.5,4.9-2.2,7.8-2.2s5.5,0.7,7.8,2c2.2,1.3,3.9,3.2,5.1,5.6c1.2,2.4,1.8,5.2,1.8,8.3c0,0.6,0,1-0.1,1.2h-24.2
			c0.1,2.3,0.6,4.2,1.7,5.8c1,1.6,2.3,2.8,3.8,3.5c1.5,0.8,3.1,1.2,4.8,1.2c3.8,0,6.8-1.9,8.9-5.6l4.6,2.2c-1.3,2.5-3.1,4.4-5.4,5.9
			s-5.1,2.2-8.3,2.2C783.02,51.71,780.32,51.01,778.02,49.61z M794.72,32.11c-0.1-1.2-0.4-2.5-1-3.7c-0.6-1.2-1.6-2.3-3-3.1
			c-1.4-0.9-3.1-1.3-5.2-1.3c-2.3,0-4.3,0.7-5.9,2.2c-1.7,1.5-2.7,3.4-3.2,5.9H794.72z"/>
		<path class="st0" d="M805.52,20.31h5v4.5h0.2c0.9-1.6,2.2-2.9,4.1-3.9c1.8-1.1,3.8-1.6,5.9-1.6c3.7,0,6.6,1.1,8.5,3.3
			c1.9,2.2,2.9,5.1,2.9,8.9v19.3h-5.2v-18.5c0-5.5-2.6-8.2-7.7-8.2c-1.6,0-3.1,0.5-4.4,1.4c-1.3,0.9-2.3,2.2-3,3.7
			c-0.7,1.5-1.1,3.1-1.1,4.8v16.8h-5.2V20.31z"/>
		<path class="st0" d="M845.62,51.11c-1-0.4-1.9-1-2.7-1.7c-0.8-0.8-1.4-1.7-1.8-2.8c-0.4-1.1-0.6-2.3-0.6-3.8v-17.8h-5.4v-4.7h5.4
			v-9.1h5.2v9.1h7.5v4.7h-7.5v16.6c0,1.8,0.3,3.1,1,3.9c0.7,0.9,1.8,1.4,3.2,1.4c1.3,0,2.4-0.3,3.3-0.9v5c-0.7,0.2-1.3,0.4-1.9,0.5
			c-0.6,0.1-1.4,0.2-2.4,0.2C847.82,51.71,846.72,51.51,845.62,51.11z"/>
		<path class="st0" d="M881.12,48.71c-3.5-2-6.2-4.8-8.2-8.3s-3-7.4-3-11.7s1-8.1,3-11.7c2-3.5,4.7-6.3,8.2-8.3c3.5-2,7.3-3,11.5-3
			c3.3,0,6.3,0.6,9.1,1.9c2.7,1.2,5.1,3,7,5.3l-3.7,3.6c-1.6-2-3.5-3.5-5.5-4.4c-2-0.9-4.3-1.4-6.9-1.4c-3.1,0-6.1,0.7-8.7,2.2
			c-2.7,1.5-4.8,3.6-6.4,6.3c-1.6,2.7-2.4,5.9-2.4,9.4c0,3.6,0.8,6.7,2.4,9.4c1.6,2.7,3.7,4.8,6.4,6.3s5.6,2.2,8.7,2.2
			c5.4,0,9.9-2.2,13.6-6.6l3.7,3.7c-2,2.4-4.5,4.3-7.5,5.7c-3,1.4-6.3,2.1-9.9,2.1C888.52,51.71,884.62,50.71,881.12,48.71z"/>
		<path class="st0" d="M920.32,6.81h-5.2v43.9h5.2V6.81z"/>
		<path class="st0" d="M930.02,48.51c-1.9-2.2-2.9-5.2-2.9-9v-19.1h5.2v18.3c0,5.6,2.5,8.4,7.5,8.4c1.7,0,3.2-0.5,4.5-1.4
			c1.3-0.9,2.4-2.2,3.1-3.7s1.1-3.1,1.1-4.8v-16.8h5.2v30.4h-4.9v-4.5h-0.2c-0.9,1.6-2.3,2.9-4.1,3.9c-1.8,1.1-3.8,1.6-5.9,1.6
			C934.82,51.71,932.02,50.61,930.02,48.51z"/>
		<path class="st0" d="M970.12,50.21c-1.9-1-3.3-2.4-4.2-4h-0.2v4.5h-5V6.81h5.2v13.8l-0.2,4.2h0.2c1-1.6,2.4-2.9,4.2-3.9
			s4-1.6,6.4-1.6c2.6,0,5,0.7,7.2,2.1s4,3.3,5.3,5.8c1.3,2.5,2,5.2,2,8.3s-0.7,5.8-2,8.3c-1.3,2.5-3.1,4.4-5.3,5.8
			c-2.2,1.4-4.6,2.1-7.2,2.1C974.12,51.71,972.02,51.21,970.12,50.21z M980.82,45.61c1.5-0.9,2.8-2.3,3.7-4c0.9-1.7,1.4-3.8,1.4-6
			c0-2.3-0.5-4.3-1.4-6c-0.9-1.7-2.1-3.1-3.7-4c-1.5-0.9-3.2-1.4-5-1.4c-1.8,0-3.5,0.5-5,1.4s-2.8,2.2-3.7,4
			c-0.9,1.7-1.4,3.8-1.4,6.1s0.5,4.3,1.4,6.1c0.9,1.8,2.1,3.1,3.7,4c1.5,0.9,3.2,1.4,5,1.4C977.62,47.01,979.22,46.51,980.82,45.61z
			"/>
		<path class="st0" d="M998.52,49.31c-2.2-1.6-3.8-3.7-4.7-6.1l4.6-2c0.8,1.9,2,3.4,3.5,4.4s3.1,1.5,4.9,1.5c2,0,3.6-0.4,4.9-1.3
			c1.3-0.9,1.9-1.9,1.9-3.1s-0.5-2.2-1.4-2.9c-1-0.8-2.6-1.5-4.9-2l-4.2-1c-2.3-0.5-4.2-1.5-5.9-2.9c-1.6-1.4-2.4-3.2-2.4-5.5
			c0-1.9,0.5-3.5,1.6-4.8c1.1-1.4,2.5-2.4,4.3-3.1s3.8-1,5.9-1c2.6,0,5,0.6,7.1,1.8c2.1,1.2,3.7,2.9,4.6,5.1l-4.6,2
			c-0.7-1.5-1.6-2.6-3-3.3c-1.3-0.7-2.8-1-4.4-1c-1.6,0-3,0.4-4.3,1.2c-1.3,0.8-1.9,1.8-1.9,3c0,1.1,0.4,1.9,1.3,2.5
			c0.8,0.6,2.2,1.2,4,1.7l4.5,1.1c3,0.8,5.3,1.9,6.8,3.5c1.5,1.5,2.2,3.4,2.2,5.5c0,1.8-0.5,3.4-1.5,4.8c-1,1.4-2.5,2.6-4.3,3.4
			s-3.9,1.2-6.3,1.2C1003.52,51.71,1000.82,50.91,998.52,49.31z"/>
	</g>
	<g>
		<path class="st1" d="M28.81,29.41l19.7-11.4c4.6-2.7,6.2-8.6,3.5-13.2s-8.6-6.2-13.2-3.5l-34,19.6L28.81,29.41z"/>
		<path class="st2" d="M43.61,58.61c3.3,0,6.6-1.7,8.4-4.8c2.7-4.6,1.1-10.5-3.5-13.2l-34-19.6c-4.6-2.7-10.5-1.1-13.2,3.5
			s-1.1,10.5,3.5,13.2l34,19.6C40.31,58.21,42.01,58.61,43.61,58.61z"/>
		<path class="st3" d="M77.42,58.61c1.6,0,3.3-0.4,4.8-1.3l34-19.6l-23.7-8.7l-20,11.5c-4.6,2.7-6.2,8.6-3.5,13.2
			C70.82,56.91,74.12,58.61,77.42,58.61z"/>
		<path class="st4" d="M111.42,39.01c3.3,0,6.6-1.7,8.4-4.8c2.7-4.6,1.1-10.5-3.5-13.2l-34-19.6c-4.6-2.7-10.5-1.1-13.2,3.5
			c-2.7,4.6-1.1,10.5,3.5,13.2l34,19.6C108.12,38.61,109.82,39.01,111.42,39.01z"/>
	</g>
</g>
<g>
	<g>
		<path class="st5" d="M265.9,72.88h2.04v7.44h8.86v-7.44h2.04v17.18h-2.04v-7.82h-8.86v7.82h-2.04V72.88z"/>
		<path class="st5" d="M282.38,75.19c-0.29-0.29-0.43-0.63-0.43-1.03s0.14-0.74,0.43-1.03c0.29-0.29,0.63-0.43,1.03-0.43
			c0.4,0,0.74,0.14,1.03,0.43s0.43,0.63,0.43,1.03s-0.14,0.74-0.42,1.03c-0.28,0.29-0.63,0.43-1.04,0.43
			C283.02,75.62,282.67,75.48,282.38,75.19z M282.41,78.16h2.02v11.9h-2.02V78.16z"/>
		<path class="st5" d="M287.59,78.16h1.94v1.78h0.1c0.34-0.61,0.86-1.12,1.58-1.54c0.72-0.42,1.49-0.62,2.3-0.62
			c1.46,0,2.56,0.42,3.32,1.27c0.76,0.85,1.14,2.01,1.14,3.48v7.54h-2.02v-7.22c0-2.14-1-3.22-3-3.22c-0.64,0-1.22,0.18-1.73,0.55
			c-0.51,0.37-0.91,0.85-1.19,1.44c-0.28,0.59-0.42,1.22-0.42,1.87v6.58h-2.04V78.16z"/>
		<path class="st5" d="M303.05,89.64c-0.86-0.54-1.55-1.3-2.06-2.27c-0.51-0.97-0.77-2.05-0.77-3.25c0-1.2,0.26-2.28,0.77-3.25
			c0.51-0.97,1.2-1.72,2.06-2.27c0.86-0.54,1.81-0.82,2.83-0.82c0.93,0,1.76,0.21,2.5,0.61c0.74,0.41,1.29,0.92,1.66,1.52h0.1
			l-0.1-1.63v-5.4h2.02v17.18h-1.92v-1.78h-0.1c-0.37,0.62-0.92,1.14-1.66,1.55c-0.74,0.41-1.57,0.61-2.5,0.61
			C304.86,90.45,303.91,90.18,303.05,89.64z M308.15,88.06c0.6-0.36,1.08-0.88,1.44-1.57c0.36-0.69,0.54-1.48,0.54-2.38
			c0-0.91-0.18-1.71-0.54-2.39c-0.36-0.68-0.84-1.2-1.44-1.56c-0.6-0.36-1.25-0.54-1.96-0.54s-1.36,0.18-1.96,0.55
			c-0.6,0.37-1.08,0.89-1.44,1.57c-0.36,0.68-0.54,1.47-0.54,2.36c0,0.9,0.18,1.68,0.54,2.37c0.36,0.68,0.84,1.2,1.44,1.57
			c0.6,0.37,1.25,0.55,1.96,0.55S307.55,88.42,308.15,88.06z"/>
		<path class="st5" d="M316.09,89.18c-0.76-0.85-1.14-2.02-1.14-3.53v-7.49h2.04v7.15c0,2.19,0.98,3.29,2.95,3.29
			c0.66,0,1.24-0.18,1.76-0.55c0.52-0.37,0.92-0.85,1.2-1.44c0.28-0.59,0.42-1.21,0.42-1.87v-6.58h2.02v11.9h-1.92v-1.78h-0.1
			c-0.35,0.61-0.88,1.12-1.6,1.54s-1.48,0.62-2.29,0.62C317.97,90.45,316.85,90.03,316.09,89.18z"/>
		<path class="st5" d="M329.21,89.49c-0.88-0.64-1.5-1.43-1.85-2.38l1.8-0.79c0.32,0.75,0.77,1.33,1.36,1.73
			c0.58,0.4,1.22,0.6,1.91,0.6c0.77,0,1.4-0.17,1.91-0.5c0.5-0.34,0.76-0.74,0.76-1.22c0-0.46-0.19-0.85-0.56-1.15
			c-0.38-0.3-1.02-0.57-1.93-0.79l-1.63-0.41c-0.9-0.21-1.66-0.58-2.29-1.13c-0.63-0.54-0.95-1.26-0.95-2.16
			c0-0.73,0.21-1.37,0.64-1.9s0.99-0.93,1.69-1.2c0.7-0.27,1.47-0.41,2.3-0.41c1.02,0,1.96,0.24,2.8,0.71
			c0.84,0.47,1.44,1.14,1.79,2l-1.8,0.77c-0.26-0.58-0.64-1-1.16-1.27c-0.52-0.27-1.1-0.41-1.74-0.41c-0.62,0-1.19,0.15-1.69,0.46
			c-0.5,0.3-0.76,0.7-0.76,1.18c0,0.42,0.16,0.74,0.49,0.98c0.33,0.24,0.85,0.46,1.57,0.65l1.78,0.43c1.18,0.3,2.07,0.76,2.65,1.36
			s0.88,1.32,0.88,2.15c0,0.69-0.2,1.31-0.6,1.87c-0.4,0.56-0.96,1-1.68,1.32c-0.72,0.32-1.54,0.48-2.45,0.48
			C331.16,90.45,330.09,90.13,329.21,89.49z"/>
		<path class="st5" d="M342.47,90.21c-0.41-0.16-0.76-0.38-1.04-0.66c-0.32-0.31-0.56-0.67-0.71-1.09
			c-0.15-0.42-0.23-0.91-0.23-1.48v-6.97h-2.11v-1.85h2.11v-3.55h2.02v3.55h2.93v1.85h-2.93v6.48c0,0.69,0.14,1.2,0.41,1.52
			c0.27,0.36,0.69,0.54,1.25,0.54c0.5,0,0.93-0.11,1.3-0.34v1.97c-0.26,0.1-0.5,0.16-0.73,0.21c-0.23,0.04-0.54,0.06-0.92,0.06
			C343.32,90.45,342.88,90.37,342.47,90.21z"/>
		<path class="st5" d="M349.09,89.94c-0.7-0.34-1.24-0.82-1.63-1.44c-0.39-0.62-0.59-1.31-0.59-2.08c0-1.26,0.48-2.25,1.43-2.95
			c0.95-0.7,2.17-1.06,3.66-1.06c0.74,0,1.4,0.08,1.99,0.24s1.06,0.34,1.42,0.53v-0.62c0-0.58-0.15-1.09-0.44-1.55
			c-0.3-0.46-0.69-0.81-1.19-1.06c-0.5-0.25-1.03-0.37-1.61-0.37c-1.36,0-2.4,0.55-3.12,1.66l-1.7-1.13
			c0.5-0.74,1.15-1.31,1.97-1.71c0.82-0.41,1.74-0.61,2.76-0.61c1.63,0,2.92,0.44,3.86,1.32c0.94,0.88,1.42,2.06,1.42,3.55v7.42
			h-1.94v-1.75h-0.1c-0.38,0.61-0.9,1.12-1.56,1.52s-1.42,0.61-2.28,0.61C350.57,90.45,349.79,90.28,349.09,89.94z M353.42,88.15
			c0.58-0.34,1.04-0.79,1.4-1.37c0.36-0.58,0.54-1.2,0.54-1.87c-0.9-0.58-1.93-0.86-3.1-0.86c-1.01,0-1.81,0.23-2.41,0.68
			c-0.6,0.46-0.9,1.04-0.9,1.74c0,0.64,0.26,1.16,0.79,1.57c0.53,0.41,1.14,0.61,1.85,0.61C352.24,88.65,352.85,88.48,353.42,88.15z
			"/>
		<path class="st5" d="M360.1,78.16h1.94v1.78h0.1c0.34-0.61,0.86-1.12,1.58-1.54c0.72-0.42,1.49-0.62,2.3-0.62
			c1.46,0,2.56,0.42,3.32,1.27c0.76,0.85,1.14,2.01,1.14,3.48v7.54h-2.02v-7.22c0-2.14-1-3.22-3-3.22c-0.64,0-1.22,0.18-1.73,0.55
			c-0.51,0.37-0.91,0.85-1.19,1.44c-0.28,0.59-0.42,1.22-0.42,1.87v6.58h-2.04V78.16z"/>
		<path class="st5" d="M379.37,72.88h2.04v17.18h-2.04V72.88z"/>
		<path class="st5" d="M384.79,78.16h1.94v1.78h0.1c0.34-0.61,0.86-1.12,1.58-1.54c0.72-0.42,1.49-0.62,2.3-0.62
			c1.46,0,2.56,0.42,3.32,1.27c0.76,0.85,1.14,2.01,1.14,3.48v7.54h-2.02v-7.22c0-2.14-1-3.22-3-3.22c-0.64,0-1.22,0.18-1.73,0.55
			c-0.51,0.37-0.91,0.85-1.19,1.44c-0.28,0.59-0.42,1.22-0.42,1.87v6.58h-2.04V78.16z"/>
		<path class="st5" d="M398.95,89.49c-0.88-0.64-1.5-1.43-1.85-2.38l1.8-0.79c0.32,0.75,0.77,1.33,1.36,1.73
			c0.58,0.4,1.22,0.6,1.91,0.6c0.77,0,1.4-0.17,1.91-0.5s0.76-0.74,0.76-1.22c0-0.46-0.19-0.85-0.56-1.15
			c-0.38-0.3-1.02-0.57-1.93-0.79l-1.63-0.41c-0.9-0.21-1.66-0.58-2.29-1.13c-0.63-0.54-0.95-1.26-0.95-2.16
			c0-0.73,0.21-1.37,0.64-1.9c0.42-0.53,0.99-0.93,1.69-1.2c0.7-0.27,1.47-0.41,2.3-0.41c1.02,0,1.96,0.24,2.8,0.71
			c0.84,0.47,1.44,1.14,1.79,2l-1.8,0.77c-0.26-0.58-0.64-1-1.16-1.27c-0.52-0.27-1.1-0.41-1.74-0.41c-0.62,0-1.19,0.15-1.69,0.46
			c-0.5,0.3-0.76,0.7-0.76,1.18c0,0.42,0.16,0.74,0.49,0.98c0.33,0.24,0.85,0.46,1.57,0.65l1.78,0.43c1.18,0.3,2.07,0.76,2.65,1.36
			c0.58,0.6,0.88,1.32,0.88,2.15c0,0.69-0.2,1.31-0.6,1.87c-0.4,0.56-0.96,1-1.68,1.32s-1.54,0.48-2.45,0.48
			C400.9,90.45,399.83,90.13,398.95,89.49z"/>
		<path class="st5" d="M412.21,90.21c-0.41-0.16-0.76-0.38-1.04-0.66c-0.32-0.31-0.56-0.67-0.71-1.09
			c-0.15-0.42-0.23-0.91-0.23-1.48v-6.97h-2.11v-1.85h2.11v-3.55h2.02v3.55h2.93v1.85h-2.93v6.48c0,0.69,0.14,1.2,0.41,1.52
			c0.27,0.36,0.69,0.54,1.25,0.54c0.5,0,0.93-0.11,1.3-0.34v1.97c-0.26,0.1-0.5,0.16-0.73,0.21c-0.23,0.04-0.54,0.06-0.92,0.06
			C413.06,90.45,412.62,90.37,412.21,90.21z"/>
		<path class="st5" d="M417.84,75.19c-0.29-0.29-0.43-0.63-0.43-1.03s0.14-0.74,0.43-1.03c0.29-0.29,0.63-0.43,1.03-0.43
			c0.4,0,0.74,0.14,1.03,0.43s0.43,0.63,0.43,1.03s-0.14,0.74-0.42,1.03c-0.28,0.29-0.63,0.43-1.04,0.43
			C418.47,75.62,418.13,75.48,417.84,75.19z M417.86,78.16h2.02v11.9h-2.02V78.16z"/>
		<path class="st5" d="M426.18,90.21c-0.41-0.16-0.76-0.38-1.04-0.66c-0.32-0.31-0.56-0.67-0.71-1.09
			c-0.15-0.42-0.23-0.91-0.23-1.48v-6.97h-2.11v-1.85h2.11v-3.55h2.02v3.55h2.93v1.85h-2.93v6.48c0,0.69,0.14,1.2,0.41,1.52
			c0.27,0.36,0.69,0.54,1.25,0.54c0.5,0,0.93-0.11,1.3-0.34v1.97c-0.26,0.1-0.5,0.16-0.73,0.21c-0.23,0.04-0.54,0.06-0.92,0.06
			C427.03,90.45,426.59,90.37,426.18,90.21z"/>
		<path class="st5" d="M432.56,89.18c-0.76-0.85-1.14-2.02-1.14-3.53v-7.49h2.04v7.15c0,2.19,0.98,3.29,2.95,3.29
			c0.66,0,1.24-0.18,1.76-0.55c0.52-0.37,0.92-0.85,1.2-1.44c0.28-0.59,0.42-1.21,0.42-1.87v-6.58h2.02v11.9h-1.92v-1.78h-0.1
			c-0.35,0.61-0.88,1.12-1.6,1.54s-1.48,0.62-2.29,0.62C434.44,90.45,433.32,90.03,432.56,89.18z"/>
		<path class="st5" d="M448.19,90.21c-0.41-0.16-0.76-0.38-1.04-0.66c-0.32-0.31-0.56-0.67-0.71-1.09
			c-0.15-0.42-0.23-0.91-0.23-1.48v-6.97h-2.11v-1.85h2.11v-3.55h2.02v3.55h2.93v1.85h-2.93v6.48c0,0.69,0.14,1.2,0.41,1.52
			c0.27,0.36,0.69,0.54,1.25,0.54c0.5,0,0.93-0.11,1.3-0.34v1.97c-0.26,0.1-0.5,0.16-0.73,0.21c-0.23,0.04-0.54,0.06-0.92,0.06
			C449.04,90.45,448.59,90.37,448.19,90.21z"/>
		<path class="st5" d="M455.22,89.64c-0.9-0.54-1.61-1.3-2.12-2.26c-0.51-0.96-0.77-2.05-0.77-3.26c0-1.15,0.24-2.21,0.72-3.18
			c0.48-0.97,1.16-1.74,2.05-2.3c0.89-0.57,1.91-0.85,3.06-0.85c1.15,0,2.16,0.26,3.04,0.78c0.87,0.52,1.54,1.25,2,2.2
			c0.46,0.94,0.7,2.03,0.7,3.26c0,0.22-0.02,0.38-0.05,0.48h-9.46c0.03,0.9,0.25,1.65,0.65,2.27c0.4,0.62,0.9,1.08,1.5,1.38
			c0.6,0.3,1.22,0.46,1.86,0.46c1.5,0,2.66-0.74,3.48-2.21l1.8,0.86c-0.51,0.96-1.22,1.73-2.12,2.32c-0.9,0.58-1.99,0.88-3.25,0.88
			C457.15,90.45,456.12,90.18,455.22,89.64z M461.73,82.8c-0.03-0.48-0.17-0.96-0.41-1.44c-0.24-0.48-0.63-0.89-1.16-1.22
			s-1.22-0.5-2.05-0.5c-0.9,0-1.67,0.29-2.33,0.86s-1.07,1.34-1.25,2.3H461.73z"/>
		<path class="st5" d="M474.05,89.62c-0.93-0.55-1.65-1.31-2.17-2.28c-0.52-0.97-0.78-2.04-0.78-3.23c0-1.18,0.26-2.26,0.78-3.23
			c0.52-0.97,1.24-1.73,2.17-2.28c0.93-0.55,1.98-0.83,3.14-0.83c1.17,0,2.22,0.28,3.16,0.83c0.94,0.55,1.66,1.31,2.18,2.28
			c0.52,0.97,0.78,2.04,0.78,3.23c0,1.19-0.26,2.26-0.78,3.23c-0.52,0.97-1.25,1.73-2.18,2.28c-0.94,0.55-1.99,0.83-3.16,0.83
			C476.02,90.45,474.97,90.18,474.05,89.62z M479.21,88.05c0.62-0.37,1.12-0.89,1.5-1.57c0.38-0.68,0.56-1.47,0.56-2.37
			c0-0.89-0.19-1.68-0.56-2.36s-0.88-1.2-1.5-1.57c-0.62-0.37-1.3-0.55-2.02-0.55c-0.71,0-1.37,0.18-1.99,0.55
			c-0.62,0.37-1.12,0.89-1.5,1.57s-0.56,1.47-0.56,2.36c0,0.9,0.19,1.68,0.56,2.37c0.38,0.68,0.88,1.2,1.5,1.57s1.29,0.55,1.99,0.55
			C477.91,88.6,478.58,88.42,479.21,88.05z"/>
		<path class="st5" d="M486.65,80.01h-2.23v-1.85h2.23v-1.66c0-0.77,0.17-1.44,0.52-2.02c0.34-0.58,0.81-1.02,1.39-1.33
			c0.58-0.31,1.24-0.47,1.96-0.47c0.4,0,0.72,0.02,0.97,0.07c0.25,0.05,0.51,0.12,0.78,0.22v1.99c-0.51-0.25-1.07-0.38-1.68-0.38
			c-0.53,0-0.98,0.19-1.34,0.56c-0.37,0.38-0.55,0.9-0.55,1.57v1.44h3.07v1.85h-3.07v10.06h-2.04V80.01z"/>
		<path class="st5" d="M502.7,74.83h-4.82v-1.94h11.66v1.94h-4.82v15.24h-2.02V74.83z"/>
		<path class="st5" d="M511.95,89.64c-0.9-0.54-1.61-1.3-2.12-2.26c-0.51-0.96-0.77-2.05-0.77-3.26c0-1.15,0.24-2.21,0.72-3.18
			c0.48-0.97,1.16-1.74,2.05-2.3c0.89-0.57,1.91-0.85,3.06-0.85c1.15,0,2.16,0.26,3.04,0.78c0.87,0.52,1.54,1.25,2,2.2
			c0.46,0.94,0.7,2.03,0.7,3.26c0,0.22-0.02,0.38-0.05,0.48h-9.46c0.03,0.9,0.25,1.65,0.65,2.27c0.4,0.62,0.9,1.08,1.5,1.38
			c0.6,0.3,1.22,0.46,1.86,0.46c1.5,0,2.66-0.74,3.48-2.21l1.8,0.86c-0.51,0.96-1.22,1.73-2.12,2.32c-0.9,0.58-1.99,0.88-3.25,0.88
			C513.89,90.45,512.86,90.18,511.95,89.64z M518.47,82.8c-0.03-0.48-0.17-0.96-0.41-1.44c-0.24-0.48-0.63-0.89-1.16-1.22
			s-1.22-0.5-2.05-0.5c-0.9,0-1.67,0.29-2.33,0.86s-1.07,1.34-1.25,2.3H518.47z"/>
		<path class="st5" d="M525.33,89.62c-0.93-0.55-1.65-1.31-2.17-2.28c-0.52-0.97-0.78-2.04-0.78-3.23c0-1.2,0.26-2.28,0.78-3.24
			c0.52-0.96,1.24-1.72,2.17-2.27c0.93-0.55,1.97-0.83,3.12-0.83c1.3,0,2.38,0.31,3.26,0.94s1.52,1.43,1.92,2.42l-1.85,0.79
			c-0.64-1.54-1.79-2.3-3.46-2.3c-0.67,0-1.31,0.19-1.91,0.56c-0.6,0.38-1.08,0.9-1.45,1.58c-0.37,0.68-0.55,1.46-0.55,2.34
			c0,0.87,0.18,1.64,0.55,2.33c0.37,0.69,0.85,1.22,1.45,1.6c0.6,0.38,1.24,0.56,1.91,0.56c0.85,0,1.58-0.2,2.18-0.6
			c0.61-0.4,1.06-0.97,1.37-1.7l1.8,0.77c-0.4,0.99-1.05,1.8-1.94,2.44c-0.9,0.63-1.99,0.95-3.29,0.95
			C527.3,90.45,526.26,90.18,525.33,89.62z"/>
		<path class="st5" d="M535.84,72.88h2.04v5.38l-0.1,1.7h0.1c0.34-0.62,0.86-1.14,1.57-1.56s1.48-0.62,2.32-0.62
			c1.49,0,2.61,0.43,3.36,1.3c0.75,0.86,1.13,2.02,1.13,3.46v7.54h-2.02v-7.22c0-1.1-0.27-1.92-0.8-2.44s-1.25-0.78-2.15-0.78
			c-0.64,0-1.22,0.19-1.74,0.56c-0.52,0.38-0.93,0.87-1.22,1.49c-0.3,0.62-0.44,1.25-0.44,1.91v6.48h-2.04V72.88z"/>
		<path class="st5" d="M549.14,78.16h1.94v1.78h0.1c0.34-0.61,0.86-1.12,1.58-1.54c0.72-0.42,1.49-0.62,2.3-0.62
			c1.46,0,2.56,0.42,3.32,1.27c0.76,0.85,1.14,2.01,1.14,3.48v7.54h-2.02v-7.22c0-2.14-1-3.22-3-3.22c-0.64,0-1.22,0.18-1.73,0.55
			c-0.51,0.37-0.91,0.85-1.19,1.44c-0.28,0.59-0.42,1.22-0.42,1.87v6.58h-2.04V78.16z"/>
		<path class="st5" d="M564.72,89.62c-0.93-0.55-1.65-1.31-2.17-2.28c-0.52-0.97-0.78-2.04-0.78-3.23c0-1.18,0.26-2.26,0.78-3.23
			c0.52-0.97,1.24-1.73,2.17-2.28c0.93-0.55,1.98-0.83,3.14-0.83s2.22,0.28,3.16,0.83c0.94,0.55,1.66,1.31,2.18,2.28
			c0.52,0.97,0.78,2.04,0.78,3.23c0,1.19-0.26,2.26-0.78,3.23c-0.52,0.97-1.25,1.73-2.18,2.28c-0.94,0.55-1.99,0.83-3.16,0.83
			S565.64,90.18,564.72,89.62z M569.88,88.05c0.62-0.37,1.12-0.89,1.5-1.57c0.38-0.68,0.56-1.47,0.56-2.37
			c0-0.89-0.19-1.68-0.56-2.36c-0.38-0.68-0.88-1.2-1.5-1.57c-0.62-0.37-1.3-0.55-2.02-0.55c-0.7,0-1.37,0.18-1.99,0.55
			c-0.62,0.37-1.12,0.89-1.5,1.57s-0.56,1.47-0.56,2.36c0,0.9,0.19,1.68,0.56,2.37c0.38,0.68,0.88,1.2,1.5,1.57s1.29,0.55,1.99,0.55
			C568.58,88.6,569.25,88.42,569.88,88.05z"/>
		<path class="st5" d="M576.16,72.88h2.04v17.18h-2.04V72.88z"/>
		<path class="st5" d="M583.34,89.62c-0.93-0.55-1.65-1.31-2.17-2.28c-0.52-0.97-0.78-2.04-0.78-3.23c0-1.18,0.26-2.26,0.78-3.23
			c0.52-0.97,1.24-1.73,2.17-2.28c0.93-0.55,1.98-0.83,3.14-0.83c1.17,0,2.22,0.28,3.16,0.83c0.94,0.55,1.66,1.31,2.18,2.28
			c0.52,0.97,0.78,2.04,0.78,3.23c0,1.19-0.26,2.26-0.78,3.23c-0.52,0.97-1.25,1.73-2.18,2.28c-0.94,0.55-1.99,0.83-3.16,0.83
			C585.32,90.45,584.27,90.18,583.34,89.62z M588.5,88.05c0.62-0.37,1.12-0.89,1.5-1.57c0.38-0.68,0.56-1.47,0.56-2.37
			c0-0.89-0.19-1.68-0.56-2.36s-0.88-1.2-1.5-1.57c-0.62-0.37-1.3-0.55-2.02-0.55c-0.71,0-1.37,0.18-1.99,0.55
			c-0.62,0.37-1.12,0.89-1.5,1.57s-0.56,1.47-0.56,2.36c0,0.9,0.19,1.68,0.56,2.37c0.38,0.68,0.88,1.2,1.5,1.57s1.29,0.55,1.99,0.55
			C587.2,88.6,587.88,88.42,588.5,88.05z"/>
		<path class="st5" d="M596.61,94.6c-0.91-0.69-1.53-1.49-1.85-2.4l1.9-0.79c0.24,0.7,0.67,1.28,1.28,1.72s1.35,0.66,2.2,0.66
			c1.26,0,2.24-0.37,2.92-1.1c0.68-0.73,1.02-1.76,1.02-3.08v-1.27h-0.1c-0.38,0.61-0.94,1.11-1.66,1.51
			c-0.72,0.4-1.54,0.6-2.45,0.6c-1.01,0-1.94-0.27-2.81-0.82c-0.86-0.55-1.55-1.3-2.06-2.26c-0.51-0.96-0.77-2.05-0.77-3.25
			c0-1.2,0.26-2.29,0.77-3.25c0.51-0.96,1.2-1.72,2.06-2.26c0.86-0.55,1.8-0.82,2.81-0.82c0.91,0,1.73,0.2,2.45,0.6
			c0.72,0.4,1.27,0.9,1.66,1.51h0.1v-1.73h1.94v11.42c0,1.31-0.26,2.42-0.77,3.34c-0.51,0.91-1.21,1.59-2.1,2.04
			c-0.89,0.45-1.89,0.67-3.01,0.67C598.7,95.64,597.52,95.29,596.61,94.6z M602.13,88.06c0.59-0.36,1.07-0.88,1.43-1.56
			s0.54-1.47,0.54-2.39c0-0.92-0.18-1.72-0.54-2.4s-0.84-1.2-1.43-1.56c-0.59-0.35-1.24-0.53-1.94-0.53s-1.35,0.18-1.94,0.54
			c-0.59,0.36-1.07,0.88-1.43,1.56c-0.36,0.68-0.54,1.47-0.54,2.39c0,0.92,0.18,1.71,0.54,2.39c0.36,0.68,0.84,1.19,1.43,1.56
			c0.59,0.36,1.24,0.54,1.94,0.54S601.54,88.42,602.13,88.06z"/>
		<path class="st5" d="M612.64,89.3l-4.94-11.14h2.21l3.7,8.76h0.05l3.58-8.76h2.21L612,95.25h-2.09L612.64,89.3z"/>
		<path class="st5" d="M628.18,89.94c-0.7-0.34-1.24-0.82-1.63-1.44c-0.39-0.62-0.59-1.31-0.59-2.08c0-1.26,0.48-2.25,1.43-2.95
			s2.17-1.06,3.66-1.06c0.74,0,1.4,0.08,1.99,0.24c0.59,0.16,1.06,0.34,1.42,0.53v-0.62c0-0.58-0.15-1.09-0.44-1.55
			s-0.69-0.81-1.19-1.06c-0.5-0.25-1.03-0.37-1.61-0.37c-1.36,0-2.4,0.55-3.12,1.66l-1.7-1.13c0.5-0.74,1.15-1.31,1.97-1.71
			c0.82-0.41,1.74-0.61,2.76-0.61c1.63,0,2.92,0.44,3.86,1.32c0.94,0.88,1.42,2.06,1.42,3.55v7.42h-1.94v-1.75h-0.1
			c-0.38,0.61-0.9,1.12-1.56,1.52s-1.42,0.61-2.28,0.61S628.88,90.28,628.18,89.94z M632.52,88.15c0.58-0.34,1.04-0.79,1.4-1.37
			c0.36-0.58,0.54-1.2,0.54-1.87c-0.9-0.58-1.93-0.86-3.1-0.86c-1.01,0-1.81,0.23-2.41,0.68c-0.6,0.46-0.9,1.04-0.9,1.74
			c0,0.64,0.26,1.16,0.79,1.57c0.53,0.41,1.14,0.61,1.85,0.61C631.33,88.65,631.94,88.48,632.52,88.15z"/>
		<path class="st5" d="M639.19,78.16h1.94v1.78h0.1c0.34-0.61,0.86-1.12,1.58-1.54c0.72-0.42,1.49-0.62,2.3-0.62
			c1.46,0,2.56,0.42,3.32,1.27c0.76,0.85,1.14,2.01,1.14,3.48v7.54h-2.02v-7.22c0-2.14-1-3.22-3-3.22c-0.64,0-1.22,0.18-1.73,0.55
			c-0.51,0.37-0.91,0.85-1.19,1.44c-0.28,0.59-0.42,1.22-0.42,1.87v6.58h-2.04V78.16z"/>
		<path class="st5" d="M654.64,89.64c-0.86-0.54-1.55-1.3-2.06-2.27c-0.51-0.97-0.77-2.05-0.77-3.25c0-1.2,0.26-2.28,0.77-3.25
			c0.51-0.97,1.2-1.72,2.06-2.27c0.86-0.54,1.81-0.82,2.83-0.82c0.93,0,1.76,0.21,2.5,0.61c0.74,0.41,1.29,0.92,1.66,1.52h0.1
			l-0.1-1.63v-5.4h2.02v17.18h-1.92v-1.78h-0.1c-0.37,0.62-0.92,1.14-1.66,1.55s-1.57,0.61-2.5,0.61
			C656.45,90.45,655.51,90.18,654.64,89.64z M659.74,88.06c0.6-0.36,1.08-0.88,1.44-1.57c0.36-0.69,0.54-1.48,0.54-2.38
			c0-0.91-0.18-1.71-0.54-2.39c-0.36-0.68-0.84-1.2-1.44-1.56c-0.6-0.36-1.25-0.54-1.96-0.54s-1.36,0.18-1.96,0.55
			c-0.6,0.37-1.08,0.89-1.44,1.57c-0.36,0.68-0.54,1.47-0.54,2.36c0,0.9,0.18,1.68,0.54,2.37c0.36,0.68,0.84,1.2,1.44,1.57
			c0.6,0.37,1.25,0.55,1.96,0.55S659.14,88.42,659.74,88.06z"/>
		<path class="st5" d="M674.17,89.91c-0.81-0.36-1.52-0.89-2.14-1.58c-0.62-0.7-1.06-1.54-1.33-2.53l1.94-0.79
			c0.27,1.02,0.78,1.86,1.51,2.52c0.74,0.66,1.59,0.98,2.57,0.98c1.01,0,1.86-0.27,2.54-0.8c0.69-0.54,1.03-1.27,1.03-2.2
			c0-0.8-0.29-1.46-0.88-1.98c-0.58-0.52-1.54-1-2.87-1.45l-1.08-0.38c-1.22-0.43-2.21-1-2.98-1.7c-0.77-0.7-1.15-1.68-1.15-2.93
			c0-0.82,0.22-1.57,0.67-2.27s1.07-1.25,1.86-1.67s1.68-0.62,2.68-0.62s1.86,0.18,2.6,0.55c0.74,0.37,1.34,0.82,1.78,1.34
			c0.44,0.53,0.74,1.05,0.9,1.56l-1.9,0.82c-0.18-0.61-0.54-1.15-1.1-1.62c-0.56-0.47-1.3-0.71-2.23-0.71
			c-0.88,0-1.63,0.25-2.26,0.74s-0.94,1.12-0.94,1.87c0,0.67,0.26,1.22,0.79,1.64c0.53,0.42,1.33,0.82,2.4,1.19l1.1,0.38
			c1.46,0.53,2.6,1.19,3.42,1.98c0.82,0.79,1.24,1.87,1.24,3.23c0,1.1-0.28,2.03-0.85,2.78c-0.57,0.75-1.28,1.3-2.15,1.66
			c-0.86,0.35-1.76,0.53-2.69,0.53C675.81,90.45,674.98,90.27,674.17,89.91z"/>
		<path class="st5" d="M687.19,89.62c-0.93-0.55-1.65-1.31-2.17-2.28c-0.52-0.97-0.78-2.04-0.78-3.23c0-1.2,0.26-2.28,0.78-3.24
			c0.52-0.96,1.24-1.72,2.17-2.27c0.93-0.55,1.97-0.83,3.12-0.83c1.3,0,2.38,0.31,3.26,0.94s1.52,1.43,1.92,2.42l-1.85,0.79
			c-0.64-1.54-1.79-2.3-3.46-2.3c-0.67,0-1.31,0.19-1.91,0.56c-0.6,0.38-1.08,0.9-1.45,1.58c-0.37,0.68-0.55,1.46-0.55,2.34
			c0,0.87,0.18,1.64,0.55,2.33c0.37,0.69,0.85,1.22,1.45,1.6c0.6,0.38,1.24,0.56,1.91,0.56c0.85,0,1.58-0.2,2.18-0.6
			s1.06-0.97,1.37-1.7l1.8,0.77c-0.4,0.99-1.05,1.8-1.94,2.44c-0.9,0.63-1.99,0.95-3.29,0.95
			C689.15,90.45,688.11,90.18,687.19,89.62z"/>
		<path class="st5" d="M697.87,75.19c-0.29-0.29-0.43-0.63-0.43-1.03s0.14-0.74,0.43-1.03s0.63-0.43,1.03-0.43
			c0.4,0,0.74,0.14,1.03,0.43c0.29,0.29,0.43,0.63,0.43,1.03s-0.14,0.74-0.42,1.03c-0.28,0.29-0.63,0.43-1.04,0.43
			C698.5,75.62,698.15,75.48,697.87,75.19z M697.89,78.16h2.02v11.9h-2.02V78.16z"/>
		<path class="st5" d="M705.18,89.64c-0.9-0.54-1.61-1.3-2.12-2.26c-0.51-0.96-0.77-2.05-0.77-3.26c0-1.15,0.24-2.21,0.72-3.18
			c0.48-0.97,1.16-1.74,2.05-2.3c0.89-0.57,1.91-0.85,3.06-0.85c1.15,0,2.16,0.26,3.04,0.78c0.87,0.52,1.54,1.25,2,2.2
			c0.46,0.94,0.7,2.03,0.7,3.26c0,0.22-0.02,0.38-0.05,0.48h-9.46c0.03,0.9,0.25,1.65,0.65,2.27c0.4,0.62,0.9,1.08,1.5,1.38
			c0.6,0.3,1.22,0.46,1.86,0.46c1.5,0,2.66-0.74,3.48-2.21l1.8,0.86c-0.51,0.96-1.22,1.73-2.12,2.32c-0.9,0.58-1.99,0.88-3.25,0.88
			C707.11,90.45,706.08,90.18,705.18,89.64z M711.69,82.8c-0.03-0.48-0.17-0.96-0.41-1.44c-0.24-0.48-0.63-0.89-1.16-1.22
			s-1.22-0.5-2.05-0.5c-0.9,0-1.67,0.29-2.33,0.86s-1.07,1.34-1.25,2.3H711.69z"/>
		<path class="st5" d="M716.15,78.16h1.94v1.78h0.1c0.34-0.61,0.86-1.12,1.58-1.54c0.72-0.42,1.49-0.62,2.3-0.62
			c1.46,0,2.56,0.42,3.32,1.27c0.76,0.85,1.14,2.01,1.14,3.48v7.54h-2.02v-7.22c0-2.14-1-3.22-3-3.22c-0.64,0-1.22,0.18-1.73,0.55
			c-0.51,0.37-0.91,0.85-1.19,1.44c-0.28,0.59-0.42,1.22-0.42,1.87v6.58h-2.04V78.16z"/>
		<path class="st5" d="M731.73,89.62c-0.93-0.55-1.65-1.31-2.17-2.28c-0.52-0.97-0.78-2.04-0.78-3.23c0-1.2,0.26-2.28,0.78-3.24
			c0.52-0.96,1.24-1.72,2.17-2.27c0.93-0.55,1.97-0.83,3.12-0.83c1.3,0,2.38,0.31,3.26,0.94s1.52,1.43,1.92,2.42l-1.85,0.79
			c-0.64-1.54-1.79-2.3-3.46-2.3c-0.67,0-1.31,0.19-1.91,0.56c-0.6,0.38-1.08,0.9-1.45,1.58c-0.37,0.68-0.55,1.46-0.55,2.34
			c0,0.87,0.18,1.64,0.55,2.33c0.37,0.69,0.85,1.22,1.45,1.6c0.6,0.38,1.24,0.56,1.91,0.56c0.85,0,1.58-0.2,2.18-0.6
			c0.61-0.4,1.06-0.97,1.37-1.7l1.8,0.77c-0.4,0.99-1.05,1.8-1.94,2.44c-0.9,0.63-1.99,0.95-3.29,0.95
			C733.7,90.45,732.66,90.18,731.73,89.62z"/>
		<path class="st5" d="M744.34,89.64c-0.9-0.54-1.61-1.3-2.12-2.26c-0.51-0.96-0.77-2.05-0.77-3.26c0-1.15,0.24-2.21,0.72-3.18
			c0.48-0.97,1.16-1.74,2.05-2.3c0.89-0.57,1.91-0.85,3.06-0.85c1.15,0,2.16,0.26,3.04,0.78c0.87,0.52,1.54,1.25,2,2.2
			c0.46,0.94,0.7,2.03,0.7,3.26c0,0.22-0.02,0.38-0.05,0.48h-9.46c0.03,0.9,0.25,1.65,0.65,2.27c0.4,0.62,0.9,1.08,1.5,1.38
			c0.6,0.3,1.22,0.46,1.86,0.46c1.5,0,2.66-0.74,3.48-2.21l1.8,0.86c-0.51,0.96-1.22,1.73-2.12,2.32c-0.9,0.58-1.99,0.88-3.25,0.88
			C746.27,90.45,745.25,90.18,744.34,89.64z M750.86,82.8c-0.03-0.48-0.17-0.96-0.41-1.44c-0.24-0.48-0.63-0.89-1.16-1.22
			s-1.22-0.5-2.05-0.5c-0.9,0-1.67,0.29-2.33,0.86s-1.07,1.34-1.25,2.3H750.86z"/>
	</g>
</g>
</svg>
