<?xml version="1.0" encoding="utf-8"?>
<!-- Generator: Adobe Illustrator 24.3.0, SVG Export Plug-In . SVG Version: 6.00 Build 0)  -->
<svg version="1.1" id="Layer_1" xmlns="http://www.w3.org/2000/svg" xmlns:xlink="http://www.w3.org/1999/xlink" x="0px" y="0px"
	 viewBox="0 0 840.7 517.1" style="enable-background:new 0 0 840.7 517.1;" xml:space="preserve">
<style type="text/css">
	.st0{fill:#2F2E41;}
	.st1{fill:#FFB7B7;}
	.st2{fill:#2785FC;}
	.st3{fill:#FFB6B6;}
	.st4{fill:#A0616A;}
	.st5{fill:#E6E6E6;}
	.st6{fill:#FE2C25;}
	.st7{fill:#3F3D56;}
	.st8{fill:#FFBA01;}
	.st9{fill:#CCCCCC;}
</style>
<path class="st0" d="M268.2,184.3l-5.3,1.7c-0.1-0.3-0.1-0.6-0.2-0.9c-0.7-2.2-1,1.8-2.8,0.3c0.1,1.9-2.6-17.8-2.9-15.9
	c-0.1,0.8,0.9,14,0.7,14.8l-41.4,0.4c0.2-4-1.9-2.5-3.8-6c-1.1,3.3-1.3,0.9-3,3.9c-0.7,1.3-1.5,2.5-2.4,3.7
	c-0.4,0.6-0.8,1.2-1.3,1.7l-0.6,0.2l-2.8-54.6c0-18,15.6-26.8,27.9-15.1c6.5,6.2,22.5-1.9,26.1,4c3.7,5.9,5.1,14.1,5.1,23.1
	L268.2,184.3z"/>
<g>
	<polygon class="st1" points="202.9,494.7 211.9,494.9 216.9,454.5 203.6,454.2 	"/>
	<path class="st0" d="M233.7,513.4L233.7,513.4c0,1.5-1.1,2.7-2.4,2.7h-17.8c0,0-1.8-7.1-8.9-10.1l-0.5,10.1h-9.2l1.1-16.2
		c0,0-2.5-8.7,2.6-13.1c5.1-4.4,1-3.8,1-3.8l2-10l13.9,1.6l0.1,15.8l6.7,15.6l9.9,4.9C233.2,511.3,233.7,512.3,233.7,513.4
		L233.7,513.4L233.7,513.4z"/>
</g>
<g>
	<polygon class="st1" points="230.2,488.1 238.9,490.6 253.9,452.8 241.2,449.2 	"/>
	<path class="st0" d="M255.3,514L255.3,514c-0.4,1.5-1.7,2.4-3,2l-17.2-4.5c0,0,0.1-7.3-6.1-12l-3,9.6l-8.9-2.3l5.2-15.4
		c0,0-0.2-9,5.9-12c6.1-3,1.9-3.4,1.9-3.4l4.5-9.2l13,5.1l-3.9,15.3l2.6,16.8l8.3,7.2C255.3,511.9,255.6,513,255.3,514L255.3,514z"
		/>
</g>
<polygon class="st2" points="252,169.5 224.7,172.3 207.4,271.6 259.8,279.9 "/>
<path class="st0" d="M199.6,187.9l2.8,64.7l-24.5,42.9l17.8,16.2c0,0,32.9-65.2,34-83.1s-5.3-54.7-5.3-54.7L199.6,187.9L199.6,187.9
	z"/>
<path class="st0" d="M277.7,187.9l-2.8,64.7l24.5,42.9l-37.9,17.3c0,0-12.8-66.4-13.9-84.2c-1.1-17.8,5.3-54.7,5.3-54.7L277.7,187.9
	L277.7,187.9z"/>
<polygon class="st0" points="210.8,265.4 197.9,267.1 190.7,344.6 200.7,462 217.1,462 229.2,331.2 250.3,380.3 234.8,462 
	250.3,463.5 281.6,378.6 259.8,279.9 "/>
<path class="st3" d="M263.4,335.4c0.6-2.1,1.6-4,2.9-5.3l4.5-20.7l9.8,2.4l-5.6,20.8c0.4,1.8,0.3,3.9-0.3,6c-1.4,4.9-5,8.1-8.1,7.2
	S262,340.3,263.4,335.4L263.4,335.4L263.4,335.4z"/>
<path class="st0" d="M264.7,183.7c0,0,18.1-0.9,19.4,11.1s5.5,80.3,5.5,80.3l-9.8,46.1l-13.9-1.9l6.2-58.7L264.7,183.7L264.7,183.7z
	"/>
<path class="st3" d="M109.7,219.6c2.1,0.9,3.8,2.1,4.9,3.5l20.1,6.9l-3.6,9.5l-20-8c-1.8,0.2-3.9-0.2-5.9-1c-4.7-2-7.5-6-6.3-9
	S105,217.6,109.7,219.6L109.7,219.6L109.7,219.6z"/>
<path class="st0" d="M224.6,190.8L224.6,190.8l-45.9,62l-53.8-14.8l2.3-14l41,7.8l22.9-35.1C198.6,182.1,213.3,179.2,224.6,190.8z"
	/>
<circle class="st1" cx="236.3" cy="143.7" r="20.1"/>
<path class="st0" d="M266,143h-6.8l-1.8-2.5c-0.9,0-1.6,2.4-2.4,2.2c-2.6-0.6-5-1.9-7-3.8c-0.2-0.2-0.3-0.3-0.5-0.5l0,0
	c0.2,2.5-1.9,4.5-4.3,4.5H230c-3.6,0-6.2,3.4-5.3,6.8l-1.2,42.2c0-8.6-38.1-52.6-12.3-70.3c6-4.1,10.3-3.3,19-3.3l0,0
	c13.3-7.1,29.9-0.5,34.2,13.9C265.5,135.6,266,139.2,266,143z"/>
<path class="st0" d="M655.5,143.2c-1-1-1.6-12.2-2.8-13c0.5,1.6,0.3,13.6,0.2,15.3c-10.6,7.2-17.7-11.3-25.2-11.3
	c-13.5,0-30-30.5-30-44s17-20.7,29.5-26c16.5-7,31.6,8.6,33.5,22C665.7,121.2,661.6,136.5,655.5,143.2z"/>
<circle class="st4" cx="623.1" cy="95.1" r="20.1"/>
<path class="st0" d="M593.8,90.8l10,1.2l2.5-1.5l0.3,1.8c1.4,0.2,2.8-0.4,3.7-1.5c0.7-0.9,1.5-1.7,2.5-2.3c-0.1,0.7-0.2,1.3-0.3,2
	c-0.1,1.4,0.8,2.7,2.2,2.8l14.8,1.8c3.5,0.4,5.7,4.1,4.4,7.4c0,0,3.6-7.8,6.8-5.5c7,5,27.2-5.6,10-20.7c-5.4-4.8-9.8-4.6-18.4-5.7
	l0,0c-12.3-8.6-29.6-4.2-35.7,9.6C595.2,83.5,594.3,87,593.8,90.8L593.8,90.8z"/>
<path class="st4" d="M638.2,217.2h-58.8c4.9-11,8-21.5,3.2-29.8l55.6-3.2C635.4,195.4,635.1,206.5,638.2,217.2z"/>
<path class="st5" d="M631,119.8l-23.4-1.6l-9.7,12.1l-4.9,0.9c-7.3,1.3-12.6,7.9-12.2,15.3l1.9,43.3l55.8,4.1l13.4-56.4l-16.1-6.4
	L631,119.8L631,119.8z"/>
<g>
	<polygon class="st4" points="641.1,474.3 631.6,474.5 626.2,431.5 640.3,431.2 	"/>
	<path class="st0" d="M608.3,494.2L608.3,494.2c0,1.6,1.1,2.9,2.6,2.9h19c0,0,1.9-7.5,9.5-10.7l0.5,10.7h9.8l-1.2-17.3
		c0,0,2.6-9.2-2.8-14c-5.4-4.7-1-4.1-1-4.1l-2.1-10.7l-14.8,1.7l-0.1,16.8l-7.2,16.7l-10.5,5.2C608.9,492,608.3,493.1,608.3,494.2
		L608.3,494.2L608.3,494.2z"/>
</g>
<g>
	<polygon class="st4" points="606.1,473.3 596.6,473.5 591.2,430.5 605.3,430.2 	"/>
	<path class="st0" d="M573.3,493.2L573.3,493.2c0,1.6,1.1,2.9,2.6,2.9h19c0,0,1.9-7.5,9.5-10.7l0.5,10.7h9.8l-1.2-17.3
		c0,0,2.6-9.2-2.8-14c-5.4-4.7-1-4.1-1-4.1l-2.1-10.7l-14.8,1.7l-0.1,16.8l-7.2,16.7l-10.5,5.2C573.9,491,573.3,492.1,573.3,493.2
		L573.3,493.2L573.3,493.2z"/>
</g>
<path class="st0" d="M581.7,209.2l-8,26l-3,106l20.8,98.2l16-2.2l3.9-135.4l9.9,135.4l22.6-0.9c0,0,18.8-196.1-4.9-220.2l-2.1-9.1
	L581.7,209.2L581.7,209.2z"/>
<g>
	<polygon class="st4" points="567.1,169 534.1,193.1 498.9,206.8 496.4,198.5 525.3,181.4 561.1,153.9 	"/>
	
		<ellipse transform="matrix(0.8946 -0.4468 0.4468 0.8946 -39.8764 241.2625)" class="st4" cx="491.6" cy="205.2" rx="9.6" ry="5.7"/>
	<path class="st5" d="M588.2,134.7c0,0,10.2,14.1,2.8,19.6s-29.9,31.5-29.9,31.5l-18.6-20.4L588.2,134.7L588.2,134.7z"/>
</g>
<g>
	<path class="st6" d="M107.2,0C79.3,0,56.7,22.6,56.7,50.5c0,23.5,20.6,54,39.8,69c1.7,1.4,3.7,2.3,5.7,2.9l1.9,6.8
		c0.4,1.4,1.7,2.4,3.2,2.4h0.2c1.5,0,2.9-1.1,3.2-2.6l1.6-7c1.7-0.6,3.3-1.5,4.8-2.6c21.6-16.9,40.7-44.7,40.7-68.9
		C157.7,22.6,135.1,0,107.2,0z"/>
	<path class="st7" d="M115.6,125.5c-6.1,15.2-10.9,11.7-15.3,0v-3.1h15.3C115.6,122.4,115.6,125.5,115.6,125.5z"/>
	<polygon class="st7" points="108.7,124 108.4,152.8 108.3,153.8 108.3,254 108.3,258.7 108.3,260.2 106.7,260.2 106.7,258.8 
		106.7,254 106.8,153.8 106.9,146.9 107.2,123.9 	"/>
	<polygon class="st7" points="108.4,260.2 106.9,260.2 106.7,258.8 106.7,254 106.1,153.8 102.9,123.8 104.5,123.6 106.9,146.9 
		107.6,153.8 107.9,254 107.9,255.5 108.3,258.7 	"/>
	<polygon class="st7" points="112.9,123.8 109.8,153.8 108.9,254 108.9,260.2 107.5,260.2 107.9,255.5 108,254 108.3,153.8 
		108.4,152.8 111.4,123.6 	"/>
</g>
<g>
	<g>
		<path class="st8" d="M750.5,134.5c-16.8-13.6-41.4-11.1-55.1,5.7c-11.5,14.1-14,42.5-9.7,61c0.4,1.7,1.1,3.2,2,4.5l-2.2,5
			c-0.5,1-0.2,2.3,0.7,3l0.1,0.1c0.9,0.7,2.2,0.8,3.2,0l4.4-3.5c1.3,0.5,2.7,0.7,4.1,0.8c21.2,0.4,46.3-7,58.1-21.6
			C769.8,172.8,767.3,148.1,750.5,134.5L750.5,134.5z"/>
		<path class="st8" d="M694.2,214.1c-16.5,10.9-15.6,4.4-9.2-7.5l1.5-1.8l9.2,7.5L694.2,214.1z"/>
		<polygon class="st8" points="690.8,209.9 676.5,227.1 676,227.6 627,287.9 624.8,290.7 624,291.6 623.1,290.8 623.8,290 
			626.1,287.2 675.1,226.9 678.5,222.8 689.9,209.1 		"/>
		<polygon class="st8" points="624.1,291.7 623.2,290.9 623.8,290 626.1,287.1 674.7,226.5 687.4,206.9 688.4,207.6 678.5,222.8 
			675.6,227.3 626.8,287.7 626.1,288.6 624.8,290.7 		"/>
		<polygon class="st8" points="693.5,211.8 676.9,228.3 627.4,288.2 624.4,291.9 623.5,291.2 626.1,288.6 626.8,287.8 676,227.6 
			676.5,227.1 692.6,211 		"/>
	</g>
</g>
<g>
	<path class="st2" d="M439.1,46.1c-21.4,10.5-30.3,36.4-19.8,57.9c8.8,18,36.2,33.8,56.7,38.1c1.8,0.4,3.7,0.4,5.4,0.1l4,4.5
		c0.8,0.9,2.2,1.2,3.3,0.7l0.2-0.1c1.2-0.6,1.8-1.9,1.5-3.2l-1.4-6c1.1-1.1,2-2.4,2.7-3.8c10.2-21.1,14.4-49.7,5.3-68.3
		C486.5,44.5,460.6,35.6,439.1,46.1L439.1,46.1z"/>
	<path class="st7" d="M492.9,139.5c-0.3,8-2.8,12.5-11.8,5.8l-1.2-2.4l11.8-5.8L492.9,139.5L492.9,139.5z"/>
	<polygon class="st7" points="487.1,140.9 497.7,163.2 498,164 489.9,245.6 491.7,249.2 492.2,250.4 491,250.9 490.5,249.9 
		488.7,246.2 496.9,164.5 494.3,159.2 485.9,141.4 	"/>
	<polygon class="st7" points="492.3,250.3 491.1,250.9 490.5,249.9 488.7,246.2 496.3,164.8 482.6,142.9 483.7,142.2 494.3,159.2 
		497.5,164.2 489.6,245.8 490.2,246.9 491.7,249.2 	"/>
	<polygon class="st7" points="490.2,139.1 499.1,163.4 490.4,245.4 492.6,250.1 491.6,250.7 490.2,246.9 489.6,245.8 498,164 
		497.7,163.2 489,139.6 	"/>
</g>
<path class="st9" d="M0,515.9c0,0.7,0.5,1.2,1.2,1.2h403.3c0.7,0,1.2-0.5,1.2-1.2c0-0.7-0.5-1.2-1.2-1.2H1.2
	C0.5,514.7,0,515.2,0,515.9z"/>
<path class="st9" d="M414,495.9c0,0.7,0.5,1.2,1.2,1.2h403.3c0.7,0,1.2-0.5,1.2-1.2c0-0.7-0.5-1.2-1.2-1.2H415.2
	C414.5,494.7,414,495.2,414,495.9z"/>
<polygon class="st4" points="659,184.4 658.5,225.2 648.3,261.6 640.2,258.6 643.8,225.2 643.3,180.1 "/>
<ellipse transform="matrix(0.1791 -0.9838 0.9838 0.1791 265.3634 851.01)" class="st4" cx="642.7" cy="266.5" rx="9.6" ry="5.7"/>
<path class="st5" d="M646.7,135.8c0,0,17.4,0.2,17.4,9.5s-1.9,43.7-1.9,43.7l-27.5,2.6L646.7,135.8L646.7,135.8z"/>
</svg>
